# xmcd
#
# Track frame offsets:
#	150
#	16367
#	33092
#	64312
#
# Disc length: 1384 seconds
#
# Revision: 1
# Processed by: cddbd v1.5.1PL2 Copyright (c) Steve Scherf et al.
# Submitted via: audiograbber 1.83.01
#
DISCID=2a056604
DTITLE=Jamelia - Call Me (Single)
DYEAR=2000
DGENRE=Black
TTITLE0=Call Me (Radio Edit)
TTITLE1=Call Me (Goodfellas Rising Mix)
TTITLE2=Big Girl
TTITLE3=Daten-CD
EXTD=
EXTT0=
EXTT1=
EXTT2=
EXTT3=
PLAYORDER=
